<svg xmlns="http://www.w3.org/2000/svg" width="200" height="200" viewBox="0 0 200 200">
<path fill="#FFFFFF" d="M116.153,99.999l36.484-36.486c2.879-2.876,2.879-7.542,0-10.423
	l-5.212-5.213c-2.88-2.877-7.546-2.877-10.425,0l-36.484,36.485L64.031,47.877c-2.879-2.877-7.545-2.877-10.424,0l-5.211,5.213
	c-2.881,2.881-2.881,7.547,0,10.423L84.88,99.999l-36.483,36.485c-2.881,2.877-2.881,7.55,0,10.426l5.211,5.213
	c2.879,2.874,7.545,2.874,10.424,0l36.485-36.486L137,152.122c2.879,2.874,7.545,2.874,10.425,0l5.212-5.213
	c2.879-2.876,2.879-7.549,0-10.426L116.153,99.999z"/>
</svg>
