<svg xmlns="http://www.w3.org/2000/svg" width="200" height="200" viewBox="0 0 200 200"><path fill-rule="evenodd" clip-rule="evenodd" fill="#FFF" d="M0 0v200h200V0H0zm151.636 136.482a7.374 7.374 0 0 1 0 10.427l-5.212 5.21a7.372 7.372 0 0 1-10.426 0l-36.483-36.485L63.03 152.12a7.37 7.37 0 0 1-10.424 0l-5.21-5.21a7.37 7.37 0 0 1 0-10.428L83.88 100 47.396 63.514a7.368 7.368 0 0 1 0-10.425l5.21-5.21a7.368 7.368 0 0 1 10.426 0L99.516 84.36 136 47.88a7.37 7.37 0 0 1 10.425 0l5.212 5.21a7.37 7.37 0 0 1 0 10.425L115.153 100l36.483 36.482z"/></svg>