<svg xmlns="http://www.w3.org/2000/svg" width="200" height="200" viewBox="0 0 200 200"><g fill="#fff"><path d="M84.625 39.625c-24.854 0-45 20.146-45 44.995 0 24.858 20.146 45 45 45s45-20.142 45-45c0-24.85-20.146-44.995-45-44.995z"/><path d="M20.624 0H0v200h200V0H20.624zM165.35 179.346h-.01c-3.84 0-7.678-1.466-10.605-4.394l-35.146-35.146c-9.903 6.113-21.465 9.823-33.965 9.823-35.898 0-65-29.11-65-65.01 0-35.898 29.102-64.995 65-64.995 35.897 0 65 29.097 65 64.995 0 12.5-3.7 24.063-9.813 33.974l35.146 35.146a14.95 14.95 0 0 1 4.388 10.604c-.002 3.843-11.158 15-14.996 15.002z"/></g></svg>