<svg xmlns="http://www.w3.org/2000/svg" width="200" height="400" viewBox="0 0 200 400">
<g>
	<path fill="#FFFFFF" d="M151.637,253.09l-5.212-5.213c-2.88-2.877-7.546-2.877-10.425,0l-36.484,36.485l-36.485-36.485
		c-2.879-2.877-7.545-2.877-10.424,0l-5.211,5.213c-2.881,2.881-2.881,7.547,0,10.423l36.483,36.486l-36.483,36.485
		c-2.881,2.877-2.881,7.55,0,10.426l5.211,5.213c2.879,2.874,7.545,2.874,10.424,0l36.485-36.486L136,352.122
		c2.879,2.874,7.545,2.874,10.425,0l5.212-5.213c2.879-2.876,2.879-7.549,0-10.426l-36.484-36.485l36.484-36.486
		C154.516,260.636,154.516,255.971,151.637,253.09z"/>
	<path fill="#FFFFFF" d="M163.038,58.226c-5.217-4.162-5.713-4.289-11.674-7.244c-2.683-1.344-6.633,2.113-8.569,4.67
		l-52.648,67.042L55.846,79.307c-1.94-2.558-5.516-3.499-8.2-2.293c-6.11,3.095-5.496,2.992-10.715,7.029
		c-2.386,1.883-2.535,5.245-0.597,7.793c0,0,36.97,46.917,41.44,52.565c6.557,8.068,18.483,7.669,24.744,0
		c4.62-5.781,61.117-78.506,61.117-78.506C165.572,63.336,165.423,59.977,163.038,58.226z"/>
</g>
</svg>
