<svg xmlns="http://www.w3.org/2000/svg" width="200" height="200" viewBox="0 0 200 200">
<path fill="#FFFFFF" d="M163.038,57.226c-5.217-4.162-5.713-4.289-11.674-7.244c-2.683-1.344-6.633,2.113-8.569,4.67l-52.648,67.042
	L55.846,78.307c-1.94-2.558-5.516-3.499-8.2-2.293c-6.11,3.095-5.496,2.992-10.715,7.029c-2.386,1.883-2.535,5.245-0.597,7.793
	c0,0,36.97,46.917,41.44,52.565c6.557,8.068,18.483,7.669,24.744,0c4.62-5.781,61.117-78.506,61.117-78.506
	C165.572,62.336,165.423,58.977,163.038,57.226z"/>
</svg>
