<svg version="1.1" xmlns="http://www.w3.org/2000/svg" width="200" height="200" viewBox="0 0 200 200">
<path d="M116.152,99.999l36.482-36.486c2.881-2.881,2.881-7.54,0-10.42
	l-5.215-5.215c-2.871-2.881-7.539-2.881-10.42,0l-36.484,36.484L64.031,47.877c-2.881-2.881-7.549-2.881-10.43,0l-5.205,5.215
	c-2.881,2.881-2.881,7.54,0,10.42l36.482,36.486l-36.482,36.482c-2.881,2.881-2.881,7.549,0,10.43l5.205,5.215
	c2.881,2.871,7.549,2.871,10.43,0l36.484-36.488L137,152.126c2.881,2.871,7.549,2.871,10.42,0l5.215-5.215
	c2.881-2.881,2.881-7.549,0-10.43L116.152,99.999z"/>
</svg>
