<svg version="1.1" xmlns="http://www.w3.org/2000/svg" width="400" height="400" viewBox="0 0 400 400">
<path fill="#00A5E0" d="M200.501,0.5c110.457,0,199.999,89.542,199.999,200
	c0,110.457-89.542,199.999-199.999,199.999C90.043,400.499,0.5,310.957,0.5,200.5C0.5,90.042,90.043,0.5,200.501,0.5z"/>
<path fill="#FFFFFF" d="M195.502,150.503h10.001c2.761,0,5,2.238,5,4.999v150
	c0,2.762-2.239,5-5,5h-10.001c-2.762,0-5-2.238-5-5v-150C190.502,152.741,192.74,150.503,195.502,150.503z"/>
<path fill="#FFFFFF" d="M195.502,100.503h10.001c2.761,0,5,2.238,5,4.999v20.002
	c0,2.761-2.239,5-5,5h-10.001c-2.762,0-5-2.239-5-5v-20.002C190.502,102.741,192.74,100.503,195.502,100.503z"/>
</svg>
