<svg version="1.1" xmlns="http://www.w3.org/2000/svg" width="400" height="400" viewBox="0 0 400 400">
<path fill="#01cf97" d="M400.5,200.5c0,110.457-89.542,199.999-199.999,199.999
	C90.043,400.499,0.5,310.957,0.5,200.5 M0.5,200.5c0-110.458,89.543-200,200.001-200c110.457,0,199.999,89.542,199.999,200"/>
<path fill="#FFFFFF" d="M286.398,147.132c-1.654-1.134-3.306-2.395-6.801-4.293c-4.271-2.336-9.259,2.624-12.391,6.816
	l-77.641,102.279l-47.916-63.522c-3.144-4.188-4.902-8.468-13.073-1.859c-3.097,2.123,0.234-0.361-3.969,2.881
	c-3.884,3.064-4.105,8.598-0.971,12.774c0,0,38.641,55.817,45.883,65.074c10.625,13.22,29.944,12.57,40.087,0
	c7.483-9.473,77.757-107.584,77.757-107.584C290.503,155.504,290.261,150.001,286.398,147.132z"/>
</svg>
