<svg version="1.1" xmlns="http://www.w3.org/2000/svg" width="400" height="400" viewBox="0 0 400 400">
<path fill="#F4615C" d="M400.5,200.5c0,110.457-89.542,199.999-199.999,199.999
	C90.043,400.499,0.5,310.957,0.5,200.5 M0.5,200.5c0-110.458,89.543-200,200.001-200c110.457,0,199.999,89.542,199.999,200"/>
<path fill="#FFFFFF" d="M195.503,100.503h10c2.761,0,5,2.239,5,5v150c0,2.761-2.239,5-5,5
	h-10c-2.761,0-5-2.239-5-5v-150C190.503,102.742,192.742,100.503,195.503,100.503z"/>
<path fill="#FFFFFF" d="M195.503,280.502h10c2.761,0,5,2.238,5,4.999v20.002
	c0,2.761-2.239,5-5,5h-10c-2.761,0-5-2.239-5-5v-20.002C190.503,282.74,192.742,280.502,195.503,280.502z"/>
</svg>
