<svg version="1.1" xmlns="http://www.w3.org/2000/svg" width="200" height="200" viewBox="0 0 200 200">
<path fill="#FFFFFF" d="M147.567,67.575c-3.978-3.241-4.356-3.337-8.9-5.639c-2.044-1.044-5.057,1.645-6.53,3.635L92,117.728
	L65.851,83.973c-1.479-1.988-4.206-2.72-6.251-1.782c-4.658,2.407-4.189,2.326-8.168,5.466c-1.817,1.466-1.932,4.082-0.456,6.065
	c0,0,28.183,36.499,31.592,40.896c4.999,6.275,14.09,5.965,18.864,0c3.52-4.498,46.59-61.078,46.59-61.078
	C149.499,71.549,149.385,68.937,147.567,67.575z"/>
</svg>
