<?xml version="1.0" encoding="utf-8"?>
<!-- Generator: Adobe Illustrator 19.0.0, SVG Export Plug-In . SVG Version: 6.00 Build 0)  -->
<svg version="1.1" id="图层_1" xmlns="http://www.w3.org/2000/svg" xmlns:xlink="http://www.w3.org/1999/xlink" x="0px" y="0px"
	 viewBox="-105 197 400 400" style="enable-background:new -105 197 400 400;" xml:space="preserve">
<style type="text/css">
	.st0{fill:#2486FF;}
	.st1{fill:#FFFFFF;}
</style>
<path class="st0" d="M95.5,197.5c110.5,0,200,89.5,200,200c0,110.5-89.5,200-200,200c-110.5,0-200-89.5-200-200
	C-104.5,287-15,197.5,95.5,197.5z"/>
<g>
	<path class="st1" d="M90.5,347.5h10c2.8,0,5,2.2,5,5v150c0,2.8-2.2,5-5,5h-10c-2.8,0-5-2.2-5-5v-150
		C85.5,349.7,87.7,347.5,90.5,347.5L90.5,347.5z"/>
	<path class="st1" d="M90.5,297.5h10c2.8,0,5,2.2,5,5v20c0,2.8-2.2,5-5,5h-10c-2.8,0-5-2.2-5-5v-20
		C85.5,299.7,87.7,297.5,90.5,297.5z"/>
</g>
</svg>
