<svg version="1.1" xmlns="http://www.w3.org/2000/svg" width="200" height="400" viewBox="0 0 200 400">
<path fill="#A2A9B6" d="M145.283,74.588c-4.215-4.086-11.048-4.086-15.261,0L99.5,104.2
	L68.978,74.588c-4.215-4.086-11.048-4.086-15.262,0c-4.215,4.092-4.215,10.72,0,14.808l38.154,37.013
	c4.215,4.089,11.047,4.089,15.261,0l38.153-37.013C149.498,85.307,149.498,78.68,145.283,74.588z"/>
<path fill="#00a5e0" d="M146.283,274.588c-4.215-4.086-11.048-4.086-15.261,0
	l-30.522,29.612l-30.522-29.612c-4.215-4.086-11.048-4.086-15.262,0c-4.215,4.092-4.215,10.72,0,14.808l38.154,37.013
	c4.215,4.089,11.047,4.089,15.261,0l38.153-37.013C150.498,285.308,150.498,278.68,146.283,274.588z"/>
</svg>
