<svg version="1.1" xmlns="http://www.w3.org/2000/svg" width="200" height="600" viewBox="0 0 200 600">
<path fill="#b6bbc6" d="M174.956,153.741l-35.146-35.146
	c6.113-9.912,9.814-21.474,9.814-33.974c0-35.898-29.102-64.995-65-64.995s-65,29.097-65,64.995s29.102,65.009,65,65.009
	c12.5,0,24.062-3.71,33.964-9.824l35.146,35.146c5.859,5.859,15.361,5.859,21.22,0C180.806,169.102,180.806,159.59,174.956,153.741z
	 M84.625,129.62c-24.854,0-45-20.142-45-45c0-24.849,20.146-44.995,45-44.995c24.853,0,45,20.146,45,44.995
	C129.625,109.479,109.479,129.62,84.625,129.62z"/>
<path fill="#ababaf" d="M174.956,353.74l-35.146-35.146
	c6.113-9.912,9.814-21.474,9.814-33.974c0-35.898-29.102-64.995-65-64.995s-65,29.097-65,64.995s29.102,65.008,65,65.008
	c12.5,0,24.062-3.71,33.964-9.823l35.146,35.146c5.859,5.859,15.361,5.859,21.22,0C180.806,369.102,180.806,359.59,174.956,353.74z
	 M84.625,329.62c-24.854,0-45-20.142-45-45c0-24.849,20.146-44.995,45-44.995c24.853,0,45,20.146,45,44.995
	C129.625,309.479,109.479,329.62,84.625,329.62z"/>
<path fill="#00a5e0" d="M174.956,553.741l-35.146-35.146
	c6.113-9.912,9.814-21.474,9.814-33.974c0-35.898-29.102-64.995-65-64.995s-65,29.097-65,64.995c0,35.897,29.102,65.009,65,65.009
	c12.5,0,24.062-3.711,33.964-9.824l35.146,35.146c5.859,5.859,15.361,5.859,21.22,0
	C180.806,569.103,180.806,559.591,174.956,553.741z M84.625,529.62c-24.854,0-45-20.142-45-44.999c0-24.849,20.146-44.995,45-44.995
	c24.853,0,45,20.146,45,44.995C129.625,509.479,109.479,529.62,84.625,529.62z"/>
</svg>
